<svg width="375" height="667" viewBox="0 0 375 667" fill="none" xmlns="http://www.w3.org/2000/svg">
<g clip-path="url(#clip0)">
<rect width="375" height="667" fill="#213032"/>
<g clip-path="url(#clip1)">
<path d="M-69 127H444V667H-69V127Z" fill="#213032"/>
<path d="M444 410.981L339.797 433.244L267.656 393L28.7906 434.956L-66 404.5L-69 667H444V410.981Z" fill="#36464A"/>
<path d="M-71.5 513L11.5 525L107.344 477L402.319 527.955L444 493.409V667H-69L-71.5 513Z" fill="#45555A"/>
<path d="M426.5 609.75L322.297 632.013L147 608.038L13.5 614.269L-86.5 608.038V865.769H426.5V609.75Z" fill="#646F72"/>
</g>
<path d="M3.27188 545.919L-83.2969 474.201L-171.469 320.638L-221.166 397.419L-291.703 448.044L-327.773 527.357L-363.844 545.919L-444 666.576H69L30.5 608L3.27188 545.919Z" fill="#353C3D"/>
<path d="M-35.2031 514.701L-79.2891 566.169L-143.414 619.326L-51.2344 579.669L3.27188 545.919L-35.2031 514.701Z" fill="#A4A4A4"/>
<g clip-path="url(#clip2)">
<path d="M161.852 643.316C162.823 643.077 163.791 643.663 164.03 644.634C164.269 645.605 163.684 646.573 162.713 646.812C161.742 647.051 160.773 646.465 160.534 645.494C160.295 644.523 160.881 643.555 161.852 643.316ZM163.178 665.441L162.868 664.178L161.217 664.585L161.922 657.408L164.896 659.869L165.781 663.461L164.81 663.7L165.121 664.963L171.918 663.29L171.607 662.027L167.529 663.031L166.286 657.982L162.783 654.21L162.793 651.324L164.292 652.808L169.049 651.637L168.595 649.792L165.1 650.653L162.369 647.927C161.958 647.513 161.304 647.365 160.721 647.508C160.527 647.556 160.454 647.677 160.26 647.725L155.422 650.666L156.665 655.715L158.413 655.285L157.529 651.693L159.522 650.584L159.372 665.039L156.071 665.851L156.381 667.114" fill="#353C3D"/>
</g>
<path d="M608.553 573.818L523.672 518.482L437.219 400L388.491 459.241L358 476L339 495L330 521.5L310.5 543.5L283.961 559.496L248.594 573.818L234 606L231 629.5L218 636L211.5 646.5L191.5 656.5L146.5 666.911H673L608.553 573.818Z" fill="#353C3D"/>
<path d="M437.219 400L423.858 448.825L459.225 488.536L415.998 486.583L478.873 523.69L431.717 548.428L387.705 630.455L399.494 571.865L311.469 556.891L409.711 530.851L388.491 459.241L437.219 400Z" fill="#A4A4A4"/>
<path d="M283.961 559.496L248.594 573.818L247 627L264 590.5L273 609L311.469 615.482L290.5 589.5L283.961 559.496Z" fill="#A4A4A4"/>
</g>
<defs>
<clipPath id="clip0">
<rect width="375" height="667" fill="white"/>
</clipPath>
<clipPath id="clip1">
<rect width="513" height="540" fill="white" transform="translate(-69 127)"/>
</clipPath>
<clipPath id="clip2">
<rect width="24" height="24" fill="white" transform="translate(147 645.736) rotate(-13.8283)"/>
</clipPath>
</defs>
</svg>
